<svg width="787" height="390" viewBox="0 0 787 390" fill="none" xmlns="http://www.w3.org/2000/svg">
<path d="M15.9716 11.2727V20H14.9148V12.3807H14.8636L12.733 13.7955V12.7216L14.9148 11.2727H15.9716ZM21.3281 20.1193C20.6861 20.1193 20.1392 19.9446 19.6875 19.5952C19.2358 19.2429 18.8906 18.733 18.652 18.0653C18.4134 17.3949 18.294 16.5852 18.294 15.6364C18.294 14.6932 18.4134 13.8878 18.652 13.2202C18.8935 12.5497 19.2401 12.0384 19.6918 11.6861C20.1463 11.331 20.6918 11.1534 21.3281 11.1534C21.9645 11.1534 22.5085 11.331 22.9602 11.6861C23.4148 12.0384 23.7614 12.5497 24 13.2202C24.2415 13.8878 24.3622 14.6932 24.3622 15.6364C24.3622 16.5852 24.2429 17.3949 24.0043 18.0653C23.7656 18.733 23.4205 19.2429 22.9688 19.5952C22.517 19.9446 21.9702 20.1193 21.3281 20.1193ZM21.3281 19.1818C21.9645 19.1818 22.4588 18.875 22.8111 18.2614C23.1634 17.6477 23.3395 16.7727 23.3395 15.6364C23.3395 14.8807 23.2585 14.2372 23.0966 13.706C22.9375 13.1747 22.7074 12.7699 22.4062 12.4915C22.108 12.2131 21.7486 12.0739 21.3281 12.0739C20.6974 12.0739 20.2045 12.3849 19.8494 13.0071C19.4943 13.6264 19.3168 14.5028 19.3168 15.6364C19.3168 16.392 19.3963 17.0341 19.5554 17.5625C19.7145 18.0909 19.9432 18.4929 20.2415 18.7685C20.5426 19.044 20.9048 19.1818 21.3281 19.1818ZM28.8281 20.1193C28.1861 20.1193 27.6392 19.9446 27.1875 19.5952C26.7358 19.2429 26.3906 18.733 26.152 18.0653C25.9134 17.3949 25.794 16.5852 25.794 15.6364C25.794 14.6932 25.9134 13.8878 26.152 13.2202C26.3935 12.5497 26.7401 12.0384 27.1918 11.6861C27.6463 11.331 28.1918 11.1534 28.8281 11.1534C29.4645 11.1534 30.0085 11.331 30.4602 11.6861C30.9148 12.0384 31.2614 12.5497 31.5 13.2202C31.7415 13.8878 31.8622 14.6932 31.8622 15.6364C31.8622 16.5852 31.7429 17.3949 31.5043 18.0653C31.2656 18.733 30.9205 19.2429 30.4688 19.5952C30.017 19.9446 29.4702 20.1193 28.8281 20.1193ZM28.8281 19.1818C29.4645 19.1818 29.9588 18.875 30.3111 18.2614C30.6634 17.6477 30.8395 16.7727 30.8395 15.6364C30.8395 14.8807 30.7585 14.2372 30.5966 13.706C30.4375 13.1747 30.2074 12.7699 29.9062 12.4915C29.608 12.2131 29.2486 12.0739 28.8281 12.0739C28.1974 12.0739 27.7045 12.3849 27.3494 13.0071C26.9943 13.6264 26.8168 14.5028 26.8168 15.6364C26.8168 16.392 26.8963 17.0341 27.0554 17.5625C27.2145 18.0909 27.4432 18.4929 27.7415 18.7685C28.0426 19.044 28.4048 19.1818 28.8281 19.1818Z" fill="white" fill-opacity="0.7"/>
<path d="M21.6989 87.7194C21.1136 87.7194 20.5966 87.6157 20.1477 87.4083C19.7017 87.1981 19.3537 86.9098 19.1037 86.5433C18.8537 86.174 18.7301 85.7535 18.733 85.2819C18.7301 84.9126 18.8026 84.5717 18.9503 84.2592C19.098 83.9438 19.2997 83.6811 19.5554 83.4708C19.8139 83.2578 20.1023 83.1228 20.4205 83.066V83.0149C20.0028 82.9069 19.6705 82.6725 19.4233 82.3117C19.1761 81.9481 19.054 81.5348 19.0568 81.0717C19.054 80.6285 19.1662 80.2322 19.3935 79.8828C19.6207 79.5333 19.9332 79.2578 20.331 79.0561C20.7315 78.8544 21.1875 78.7535 21.6989 78.7535C22.2045 78.7535 22.6563 78.8544 23.054 79.0561C23.4517 79.2578 23.7642 79.5333 23.9915 79.8828C24.2216 80.2322 24.3381 80.6285 24.3409 81.0717C24.3381 81.5348 24.2116 81.9481 23.9616 82.3117C23.7145 82.6725 23.3864 82.9069 22.9773 83.0149V83.066C23.2926 83.1228 23.5767 83.2578 23.8295 83.4708C24.0824 83.6811 24.2841 83.9438 24.4347 84.2592C24.5852 84.5717 24.6619 84.9126 24.6648 85.2819C24.6619 85.7535 24.5341 86.174 24.2812 86.5433C24.0312 86.9098 23.6832 87.1981 23.2372 87.4083C22.794 87.6157 22.2813 87.7194 21.6989 87.7194ZM21.6989 86.7819C22.0938 86.7819 22.4347 86.718 22.7216 86.5902C23.0085 86.4623 23.2301 86.2819 23.3864 86.049C23.5426 85.816 23.6222 85.5433 23.625 85.2308C23.6222 84.9012 23.5369 84.61 23.3693 84.3572C23.2017 84.1044 22.973 83.9055 22.6832 83.7606C22.3963 83.6157 22.0682 83.5433 21.6989 83.5433C21.3267 83.5433 20.9943 83.6157 20.7017 83.7606C20.4119 83.9055 20.1832 84.1044 20.0156 84.3572C19.8509 84.61 19.7699 84.9012 19.7727 85.2308C19.7699 85.5433 19.8452 85.816 19.9986 86.049C20.1548 86.2819 20.3778 86.4623 20.6676 86.5902C20.9574 86.718 21.3011 86.7819 21.6989 86.7819ZM21.6989 82.6399C22.0114 82.6399 22.2884 82.5774 22.5298 82.4524C22.7741 82.3274 22.9659 82.1527 23.1051 81.9282C23.2443 81.7038 23.3153 81.441 23.3182 81.1399C23.3153 80.8444 23.2457 80.5873 23.1094 80.3686C22.973 80.147 22.7841 79.9765 22.5426 79.8572C22.3011 79.735 22.0199 79.674 21.6989 79.674C21.3722 79.674 21.0866 79.735 20.8423 79.8572C20.598 79.9765 20.4091 80.147 20.2756 80.3686C20.142 80.5873 20.0767 80.8444 20.0795 81.1399C20.0767 81.441 20.1435 81.7038 20.2798 81.9282C20.419 82.1527 20.6108 82.3274 20.8551 82.4524C21.0994 82.5774 21.3807 82.6399 21.6989 82.6399ZM29.1445 87.7194C28.5025 87.7194 27.9556 87.5447 27.5039 87.1953C27.0522 86.843 26.707 86.3331 26.4684 85.6654C26.2298 84.995 26.1104 84.1853 26.1104 83.2365C26.1104 82.2933 26.2298 81.4879 26.4684 80.8203C26.7099 80.1498 27.0565 79.6384 27.5082 79.2862C27.9627 78.9311 28.5082 78.7535 29.1445 78.7535C29.7809 78.7535 30.3249 78.9311 30.7766 79.2862C31.2312 79.6384 31.5778 80.1498 31.8164 80.8203C32.0579 81.4879 32.1786 82.2933 32.1786 83.2365C32.1786 84.1853 32.0593 84.995 31.8207 85.6654C31.582 86.3331 31.2369 86.843 30.7852 87.1953C30.3335 87.5447 29.7866 87.7194 29.1445 87.7194ZM29.1445 86.7819C29.7809 86.7819 30.2752 86.4751 30.6275 85.8615C30.9798 85.2478 31.1559 84.3728 31.1559 83.2365C31.1559 82.4808 31.0749 81.8373 30.913 81.3061C30.7539 80.7748 30.5238 80.37 30.2227 80.0916C29.9244 79.8132 29.565 79.674 29.1445 79.674C28.5138 79.674 28.021 79.985 27.6658 80.6072C27.3107 81.2265 27.1332 82.1029 27.1332 83.2365C27.1332 83.9921 27.2127 84.6342 27.3718 85.1626C27.5309 85.691 27.7596 86.093 28.0579 86.3686C28.359 86.6441 28.7212 86.7819 29.1445 86.7819Z" fill="white" fill-opacity="0.7"/>
<path d="M21.8011 155.319C21.4432 155.314 21.0852 155.245 20.7273 155.115C20.3693 154.984 20.0426 154.764 19.7472 154.454C19.4517 154.142 19.2145 153.72 19.0355 153.189C18.8565 152.654 18.767 151.984 18.767 151.177C18.767 150.404 18.8395 149.72 18.9844 149.123C19.1293 148.524 19.3395 148.02 19.6151 147.61C19.8906 147.199 20.223 146.886 20.6122 146.673C21.0043 146.46 21.446 146.353 21.9375 146.353C22.4261 146.353 22.8608 146.451 23.2415 146.647C23.625 146.841 23.9375 147.11 24.179 147.457C24.4205 147.804 24.5767 148.203 24.6477 148.654H23.608C23.5114 148.262 23.3239 147.937 23.0455 147.679C22.767 147.42 22.3977 147.291 21.9375 147.291C21.2614 147.291 20.7287 147.585 20.3395 148.173C19.9531 148.761 19.7585 149.586 19.7557 150.649H19.8239C19.983 150.407 20.1719 150.201 20.3906 150.031C20.6122 149.858 20.8565 149.724 21.1236 149.63C21.3906 149.537 21.6733 149.49 21.9716 149.49C22.4716 149.49 22.929 149.615 23.3438 149.865C23.7585 150.112 24.0909 150.454 24.3409 150.892C24.5909 151.326 24.7159 151.825 24.7159 152.387C24.7159 152.927 24.5952 153.422 24.3537 153.87C24.1122 154.316 23.7727 154.672 23.3352 154.936C22.9006 155.197 22.3892 155.325 21.8011 155.319ZM21.8011 154.382C22.1591 154.382 22.4801 154.292 22.7642 154.113C23.0511 153.934 23.277 153.694 23.4418 153.393C23.6094 153.092 23.6932 152.757 23.6932 152.387C23.6932 152.027 23.6122 151.699 23.4503 151.403C23.2912 151.105 23.071 150.868 22.7898 150.691C22.5114 150.515 22.1932 150.427 21.8352 150.427C21.5653 150.427 21.3139 150.481 21.081 150.589C20.848 150.694 20.6435 150.839 20.4673 151.024C20.294 151.208 20.1577 151.42 20.0582 151.659C19.9588 151.895 19.9091 152.143 19.9091 152.404C19.9091 152.751 19.9901 153.075 20.152 153.376C20.3168 153.677 20.5412 153.92 20.8253 154.105C21.1122 154.289 21.4375 154.382 21.8011 154.382ZM29.2383 155.319C28.5962 155.319 28.0494 155.145 27.5977 154.795C27.146 154.443 26.8008 153.933 26.5621 153.265C26.3235 152.595 26.2042 151.785 26.2042 150.836C26.2042 149.893 26.3235 149.088 26.5621 148.42C26.8036 147.75 27.1502 147.238 27.6019 146.886C28.0565 146.531 28.6019 146.353 29.2383 146.353C29.8746 146.353 30.4187 146.531 30.8704 146.886C31.3249 147.238 31.6715 147.75 31.9102 148.42C32.1516 149.088 32.2724 149.893 32.2724 150.836C32.2724 151.785 32.1531 152.595 31.9144 153.265C31.6758 153.933 31.3306 154.443 30.8789 154.795C30.4272 155.145 29.8803 155.319 29.2383 155.319ZM29.2383 154.382C29.8746 154.382 30.369 154.075 30.7212 153.461C31.0735 152.848 31.2496 151.973 31.2496 150.836C31.2496 150.081 31.1687 149.437 31.0067 148.906C30.8477 148.375 30.6175 147.97 30.3164 147.691C30.0181 147.413 29.6587 147.274 29.2383 147.274C28.6076 147.274 28.1147 147.585 27.7596 148.207C27.4045 148.826 27.2269 149.703 27.2269 150.836C27.2269 151.592 27.3065 152.234 27.4656 152.762C27.6246 153.291 27.8533 153.693 28.1516 153.968C28.4528 154.244 28.815 154.382 29.2383 154.382Z" fill="white" fill-opacity="0.7"/>
<path d="M17.6989 221.01V220.141L21.5341 214.073H22.1648V215.419H21.7386L18.8409 220.005V220.073H24.0057V221.01H17.6989ZM21.8068 222.8V220.746V220.341V214.073H22.8125V222.8H21.8068ZM28.4492 222.919C27.8072 222.919 27.2603 222.745 26.8086 222.395C26.3569 222.043 26.0117 221.533 25.7731 220.865C25.5344 220.195 25.4151 219.385 25.4151 218.436C25.4151 217.493 25.5344 216.688 25.7731 216.02C26.0146 215.35 26.3612 214.838 26.8129 214.486C27.2674 214.131 27.8129 213.953 28.4492 213.953C29.0856 213.953 29.6296 214.131 30.0813 214.486C30.5359 214.838 30.8825 215.35 31.1211 216.02C31.3626 216.688 31.4833 217.493 31.4833 218.436C31.4833 219.385 31.364 220.195 31.1254 220.865C30.8867 221.533 30.5415 222.043 30.0898 222.395C29.6381 222.745 29.0913 222.919 28.4492 222.919ZM28.4492 221.982C29.0856 221.982 29.5799 221.675 29.9322 221.061C30.2844 220.448 30.4606 219.573 30.4606 218.436C30.4606 217.681 30.3796 217.037 30.2177 216.506C30.0586 215.975 29.8285 215.57 29.5273 215.292C29.229 215.013 28.8697 214.874 28.4492 214.874C27.8185 214.874 27.3256 215.185 26.9705 215.807C26.6154 216.426 26.4379 217.303 26.4379 218.436C26.4379 219.192 26.5174 219.834 26.6765 220.363C26.8356 220.891 27.0643 221.293 27.3626 221.569C27.6637 221.844 28.0259 221.982 28.4492 221.982Z" fill="white" fill-opacity="0.7"/>
<path d="M18.9034 290.4V289.633L21.7841 286.479C22.1222 286.11 22.4006 285.789 22.6193 285.516C22.8381 285.241 23 284.982 23.1051 284.741C23.2131 284.496 23.267 284.241 23.267 283.974C23.267 283.667 23.1932 283.401 23.0455 283.177C22.9006 282.952 22.7017 282.779 22.4489 282.657C22.196 282.535 21.9119 282.474 21.5966 282.474C21.2614 282.474 20.9688 282.543 20.7188 282.683C20.4716 282.819 20.2798 283.011 20.1435 283.258C20.0099 283.505 19.9432 283.795 19.9432 284.127H18.9375C18.9375 283.616 19.0554 283.167 19.2912 282.781C19.527 282.394 19.848 282.093 20.2543 281.877C20.6634 281.661 21.1222 281.553 21.6307 281.553C22.142 281.553 22.5952 281.661 22.9901 281.877C23.3849 282.093 23.6946 282.384 23.919 282.751C24.1435 283.117 24.2557 283.525 24.2557 283.974C24.2557 284.295 24.1974 284.609 24.081 284.916C23.9673 285.22 23.7685 285.559 23.4844 285.934C23.2031 286.306 22.8125 286.761 22.3125 287.298L20.3523 289.394V289.462H24.4091V290.4H18.9034ZM29.0156 290.519C28.3736 290.519 27.8267 290.345 27.375 289.995C26.9233 289.643 26.5781 289.133 26.3395 288.465C26.1009 287.795 25.9815 286.985 25.9815 286.036C25.9815 285.093 26.1009 284.288 26.3395 283.62C26.581 282.95 26.9276 282.438 27.3793 282.086C27.8338 281.731 28.3793 281.553 29.0156 281.553C29.652 281.553 30.196 281.731 30.6477 282.086C31.1023 282.438 31.4489 282.95 31.6875 283.62C31.929 284.288 32.0497 285.093 32.0497 286.036C32.0497 286.985 31.9304 287.795 31.6918 288.465C31.4531 289.133 31.108 289.643 30.6562 289.995C30.2045 290.345 29.6577 290.519 29.0156 290.519ZM29.0156 289.582C29.652 289.582 30.1463 289.275 30.4986 288.661C30.8509 288.048 31.027 287.173 31.027 286.036C31.027 285.281 30.946 284.637 30.7841 284.106C30.625 283.575 30.3949 283.17 30.0938 282.891C29.7955 282.613 29.4361 282.474 29.0156 282.474C28.3849 282.474 27.892 282.785 27.5369 283.407C27.1818 284.026 27.0043 284.903 27.0043 286.036C27.0043 286.792 27.0838 287.434 27.2429 287.962C27.402 288.491 27.6307 288.893 27.929 289.168C28.2301 289.444 28.5923 289.582 29.0156 289.582Z" fill="white" fill-opacity="0.7"/>
<path d="M28.75 358.119C28.108 358.119 27.5611 357.945 27.1094 357.595C26.6577 357.243 26.3125 356.733 26.0739 356.065C25.8352 355.395 25.7159 354.585 25.7159 353.636C25.7159 352.693 25.8352 351.888 26.0739 351.22C26.3153 350.55 26.6619 350.038 27.1136 349.686C27.5682 349.331 28.1136 349.153 28.75 349.153C29.3864 349.153 29.9304 349.331 30.3821 349.686C30.8366 350.038 31.1832 350.55 31.4219 351.22C31.6634 351.888 31.7841 352.693 31.7841 353.636C31.7841 354.585 31.6648 355.395 31.4261 356.065C31.1875 356.733 30.8423 357.243 30.3906 357.595C29.9389 357.945 29.392 358.119 28.75 358.119ZM28.75 357.182C29.3864 357.182 29.8807 356.875 30.233 356.261C30.5852 355.648 30.7614 354.773 30.7614 353.636C30.7614 352.881 30.6804 352.237 30.5185 351.706C30.3594 351.175 30.1293 350.77 29.8281 350.491C29.5298 350.213 29.1705 350.074 28.75 350.074C28.1193 350.074 27.6264 350.385 27.2713 351.007C26.9162 351.626 26.7386 352.503 26.7386 353.636C26.7386 354.392 26.8182 355.034 26.9773 355.562C27.1364 356.091 27.3651 356.493 27.6634 356.768C27.9645 357.044 28.3267 357.182 28.75 357.182Z" fill="white" fill-opacity="0.7"/>
<line x1="38" y1="13.5" x2="778" y2="13.5" stroke="white" stroke-opacity="0.25" stroke-dasharray="2"/>
<line x1="38" y1="81.7" x2="778" y2="81.7" stroke="white" stroke-opacity="0.25" stroke-dasharray="2"/>
<line x1="38" y1="149.9" x2="778" y2="149.9" stroke="white" stroke-opacity="0.25" stroke-dasharray="2"/>
<line x1="38" y1="218.1" x2="778" y2="218.1" stroke="white" stroke-opacity="0.25" stroke-dasharray="2"/>
<line x1="38" y1="286.3" x2="778" y2="286.3" stroke="white" stroke-opacity="0.25" stroke-dasharray="2"/>
<line x1="38" y1="354.5" x2="778" y2="354.5" stroke="white" stroke-opacity="0.5"/>
<line x1="37.5" y1="355" x2="37.5" y2="14" stroke="white" stroke-opacity="0.25" stroke-dasharray="2"/>
<line x1="160.833" y1="355" x2="160.833" y2="14" stroke="white" stroke-opacity="0.25" stroke-dasharray="2"/>
<line x1="284.167" y1="355" x2="284.167" y2="14" stroke="white" stroke-opacity="0.25" stroke-dasharray="2"/>
<line x1="407.5" y1="355" x2="407.5" y2="14" stroke="white" stroke-opacity="0.25" stroke-dasharray="2"/>
<line x1="530.833" y1="355" x2="530.833" y2="14" stroke="white" stroke-opacity="0.25" stroke-dasharray="2"/>
<line x1="654.167" y1="355" x2="654.167" y2="14" stroke="white" stroke-opacity="0.25" stroke-dasharray="2"/>
<line x1="777.5" y1="355" x2="777.5" y2="14" stroke="white" stroke-opacity="0.25" stroke-dasharray="2"/>
<path d="M98.8333 164.16L222.5 137.04L346.167 96.3598L469.833 89.5798L593.5 116.7L717.167 228.57M717.167 228.57V228.57Z" stroke="#658F64"/>
<circle opacity="0.25" cx="98.8333" cy="164.16" r="8" fill="#658F64"/>
<circle cx="98.8333" cy="164.16" r="3.5" fill="#658F64" stroke="white"/>
<circle opacity="0.25" cx="222.5" cy="137.04" r="8" fill="#658F64"/>
<circle cx="222.5" cy="137.04" r="3.5" fill="#658F64" stroke="white"/>
<circle opacity="0.25" cx="346.167" cy="96.3599" r="8" fill="#658F64"/>
<circle cx="346.167" cy="96.3599" r="3.5" fill="#658F64" stroke="white"/>
<circle opacity="0.25" cx="469.833" cy="89.5798" r="8" fill="#658F64"/>
<circle cx="469.833" cy="89.5798" r="3.5" fill="#658F64" stroke="white"/>
<circle opacity="0.25" cx="593.5" cy="116.7" r="8" fill="#658F64"/>
<circle cx="593.5" cy="116.7" r="3.5" fill="#658F64" stroke="white"/>
<circle opacity="0.25" cx="717.167" cy="228.57" r="8" fill="#658F64"/>
<circle cx="717.167" cy="228.57" r="3.5" fill="#658F64" stroke="white"/>
<path d="M70.7228 371V362.6H71.4548L77.2508 369.896H76.8668V362.6H77.7428V371H77.0108L71.2268 363.704H71.6108V371H70.7228ZM82.9805 371.06C82.3245 371.06 81.7485 370.924 81.2525 370.652C80.7565 370.372 80.3685 369.992 80.0885 369.512C79.8085 369.024 79.6685 368.468 79.6685 367.844C79.6685 367.22 79.8005 366.668 80.0645 366.188C80.3365 365.708 80.7045 365.332 81.1685 365.06C81.6405 364.78 82.1685 364.64 82.7525 364.64C83.3445 364.64 83.8685 364.776 84.3245 365.048C84.7885 365.312 85.1525 365.688 85.4165 366.176C85.6805 366.656 85.8125 367.212 85.8125 367.844C85.8125 367.884 85.8085 367.928 85.8005 367.976C85.8005 368.016 85.8005 368.06 85.8005 368.108H80.3165V367.472H85.3445L85.0085 367.724C85.0085 367.268 84.9085 366.864 84.7085 366.512C84.5165 366.152 84.2525 365.872 83.9165 365.672C83.5805 365.472 83.1925 365.372 82.7525 365.372C82.3205 365.372 81.9325 365.472 81.5885 365.672C81.2445 365.872 80.9765 366.152 80.7845 366.512C80.5925 366.872 80.4965 367.284 80.4965 367.748V367.88C80.4965 368.36 80.6005 368.784 80.8085 369.152C81.0245 369.512 81.3205 369.796 81.6965 370.004C82.0805 370.204 82.5165 370.304 83.0045 370.304C83.3885 370.304 83.7445 370.236 84.0725 370.1C84.4085 369.964 84.6965 369.756 84.9365 369.476L85.4165 370.028C85.1365 370.364 84.7845 370.62 84.3605 370.796C83.9445 370.972 83.4845 371.06 82.9805 371.06ZM90.1507 371.06C89.6147 371.06 89.1467 370.96 88.7467 370.76C88.3467 370.56 88.0347 370.26 87.8107 369.86C87.5947 369.46 87.4867 368.96 87.4867 368.36V364.7H88.3387V368.264C88.3387 368.936 88.5027 369.444 88.8307 369.788C89.1667 370.124 89.6347 370.292 90.2347 370.292C90.6747 370.292 91.0547 370.204 91.3747 370.028C91.7027 369.844 91.9507 369.58 92.1187 369.236C92.2947 368.892 92.3827 368.48 92.3827 368V364.7H93.2347V371H92.4187V369.272L92.5507 369.584C92.3507 370.048 92.0387 370.412 91.6147 370.676C91.1987 370.932 90.7107 371.06 90.1507 371.06ZM97.6012 371.06C97.0092 371.06 96.5532 370.9 96.2332 370.58C95.9132 370.26 95.7532 369.808 95.7532 369.224V363.308H96.6052V369.176C96.6052 369.544 96.6972 369.828 96.8812 370.028C97.0732 370.228 97.3452 370.328 97.6972 370.328C98.0732 370.328 98.3852 370.22 98.6332 370.004L98.9332 370.616C98.7652 370.768 98.5612 370.88 98.3212 370.952C98.0892 371.024 97.8492 371.06 97.6012 371.06ZM94.6252 365.408V364.7H98.5252V365.408H94.6252ZM100.484 371V364.7H101.3V366.416L101.216 366.116C101.392 365.636 101.688 365.272 102.104 365.024C102.52 364.768 103.036 364.64 103.652 364.64V365.468C103.62 365.468 103.588 365.468 103.556 365.468C103.524 365.46 103.492 365.456 103.46 365.456C102.796 365.456 102.276 365.66 101.9 366.068C101.524 366.468 101.336 367.04 101.336 367.784V371H100.484ZM108.756 371V369.608L108.72 369.38V367.052C108.72 366.516 108.568 366.104 108.264 365.816C107.968 365.528 107.524 365.384 106.932 365.384C106.524 365.384 106.136 365.452 105.768 365.588C105.4 365.724 105.088 365.904 104.832 366.128L104.448 365.492C104.768 365.22 105.152 365.012 105.6 364.868C106.048 364.716 106.52 364.64 107.016 364.64C107.832 364.64 108.46 364.844 108.9 365.252C109.348 365.652 109.572 366.264 109.572 367.088V371H108.756ZM106.584 371.06C106.112 371.06 105.7 370.984 105.348 370.832C105.004 370.672 104.74 370.456 104.556 370.184C104.372 369.904 104.28 369.584 104.28 369.224C104.28 368.896 104.356 368.6 104.508 368.336C104.668 368.064 104.924 367.848 105.276 367.688C105.636 367.52 106.116 367.436 106.716 367.436H108.888V368.072H106.74C106.132 368.072 105.708 368.18 105.468 368.396C105.236 368.612 105.12 368.88 105.12 369.2C105.12 369.56 105.26 369.848 105.54 370.064C105.82 370.28 106.212 370.388 106.716 370.388C107.196 370.388 107.608 370.28 107.952 370.064C108.304 369.84 108.56 369.52 108.72 369.104L108.912 369.692C108.752 370.108 108.472 370.44 108.072 370.688C107.68 370.936 107.184 371.06 106.584 371.06ZM111.887 371V362.096H112.739V371H111.887ZM115.109 371V364.7H115.925V366.428L115.793 366.104C115.993 365.648 116.313 365.292 116.753 365.036C117.193 364.772 117.717 364.64 118.325 364.64C118.837 364.64 119.285 364.74 119.669 364.94C120.061 365.132 120.365 365.428 120.581 365.828C120.805 366.228 120.917 366.732 120.917 367.34V371H120.065V367.424C120.065 366.76 119.897 366.26 119.561 365.924C119.233 365.58 118.769 365.408 118.169 365.408C117.721 365.408 117.329 365.5 116.993 365.684C116.665 365.86 116.409 366.12 116.225 366.464C116.049 366.8 115.961 367.208 115.961 367.688V371H115.109ZM123.044 373.388C122.748 373.388 122.464 373.34 122.192 373.244C121.928 373.148 121.7 373.004 121.508 372.812L121.904 372.176C122.064 372.328 122.236 372.444 122.42 372.524C122.612 372.612 122.824 372.656 123.056 372.656C123.336 372.656 123.576 372.576 123.776 372.416C123.984 372.264 124.18 371.992 124.364 371.6L124.772 370.676L124.868 370.544L127.46 364.7H128.3L125.144 371.756C124.968 372.164 124.772 372.488 124.556 372.728C124.348 372.968 124.12 373.136 123.872 373.232C123.624 373.336 123.348 373.388 123.044 373.388ZM124.724 371.18L121.82 364.7H122.708L125.276 370.484L124.724 371.18Z" fill="white" fill-opacity="0.7"/>
<path d="M194.871 371.072C194.247 371.072 193.647 370.972 193.071 370.772C192.503 370.564 192.063 370.3 191.751 369.98L192.099 369.296C192.395 369.584 192.791 369.828 193.287 370.028C193.791 370.22 194.319 370.316 194.871 370.316C195.399 370.316 195.827 370.252 196.155 370.124C196.491 369.988 196.735 369.808 196.887 369.584C197.047 369.36 197.127 369.112 197.127 368.84C197.127 368.512 197.031 368.248 196.839 368.048C196.655 367.848 196.411 367.692 196.107 367.58C195.803 367.46 195.467 367.356 195.099 367.268C194.731 367.18 194.363 367.088 193.995 366.992C193.627 366.888 193.287 366.752 192.975 366.584C192.671 366.416 192.423 366.196 192.231 365.924C192.047 365.644 191.955 365.28 191.955 364.832C191.955 364.416 192.063 364.036 192.279 363.692C192.503 363.34 192.843 363.06 193.299 362.852C193.755 362.636 194.339 362.528 195.051 362.528C195.523 362.528 195.991 362.596 196.455 362.732C196.919 362.86 197.319 363.04 197.655 363.272L197.355 363.98C196.995 363.74 196.611 363.564 196.203 363.452C195.803 363.34 195.415 363.284 195.039 363.284C194.535 363.284 194.119 363.352 193.791 363.488C193.463 363.624 193.219 363.808 193.059 364.04C192.907 364.264 192.831 364.52 192.831 364.808C192.831 365.136 192.923 365.4 193.107 365.6C193.299 365.8 193.547 365.956 193.851 366.068C194.163 366.18 194.503 366.28 194.871 366.368C195.239 366.456 195.603 366.552 195.963 366.656C196.331 366.76 196.667 366.896 196.971 367.064C197.283 367.224 197.531 367.44 197.715 367.712C197.907 367.984 198.003 368.34 198.003 368.78C198.003 369.188 197.891 369.568 197.667 369.92C197.443 370.264 197.099 370.544 196.635 370.76C196.179 370.968 195.591 371.072 194.871 371.072ZM199.074 371V370.436L203.274 365.12L203.454 365.408H199.146V364.7H204.126V365.252L199.938 370.58L199.722 370.292H204.21V371H199.074ZM208.398 371.06C207.774 371.06 207.214 370.924 206.718 370.652C206.23 370.372 205.846 369.992 205.566 369.512C205.286 369.024 205.146 368.468 205.146 367.844C205.146 367.212 205.286 366.656 205.566 366.176C205.846 365.696 206.23 365.32 206.718 365.048C207.214 364.776 207.774 364.64 208.398 364.64C208.934 364.64 209.418 364.744 209.85 364.952C210.282 365.16 210.622 365.472 210.87 365.888L210.234 366.32C210.018 366 209.75 365.764 209.43 365.612C209.11 365.46 208.762 365.384 208.386 365.384C207.938 365.384 207.534 365.488 207.174 365.696C206.814 365.896 206.53 366.18 206.322 366.548C206.114 366.916 206.01 367.348 206.01 367.844C206.01 368.34 206.114 368.772 206.322 369.14C206.53 369.508 206.814 369.796 207.174 370.004C207.534 370.204 207.938 370.304 208.386 370.304C208.762 370.304 209.11 370.228 209.43 370.076C209.75 369.924 210.018 369.692 210.234 369.38L210.87 369.812C210.622 370.22 210.282 370.532 209.85 370.748C209.418 370.956 208.934 371.06 208.398 371.06ZM211.766 371V370.436L215.966 365.12L216.146 365.408H211.838V364.7H216.818V365.252L212.63 370.58L212.414 370.292H216.902V371H211.766ZM222.445 373.64C222.053 373.64 221.733 373.532 221.485 373.316C221.245 373.108 221.125 372.824 221.125 372.464C221.125 372.208 221.197 371.924 221.341 371.612C221.493 371.308 221.761 371.004 222.145 370.7L222.421 370.832C222.229 370.904 222.025 370.96 221.809 371C221.601 371.04 221.381 371.06 221.149 371.06C220.493 371.06 219.917 370.924 219.421 370.652C218.925 370.372 218.537 369.992 218.257 369.512C217.977 369.024 217.837 368.468 217.837 367.844C217.837 367.22 217.969 366.668 218.233 366.188C218.505 365.708 218.873 365.332 219.337 365.06C219.809 364.78 220.337 364.64 220.921 364.64C221.513 364.64 222.037 364.776 222.493 365.048C222.957 365.312 223.321 365.688 223.585 366.176C223.849 366.656 223.981 367.212 223.981 367.844C223.981 367.884 223.977 367.928 223.969 367.976C223.969 368.016 223.969 368.06 223.969 368.108H218.485V367.472H223.513L223.177 367.724C223.177 367.268 223.077 366.864 222.877 366.512C222.685 366.152 222.421 365.872 222.085 365.672C221.749 365.472 221.361 365.372 220.921 365.372C220.489 365.372 220.101 365.472 219.757 365.672C219.413 365.872 219.145 366.152 218.953 366.512C218.761 366.872 218.665 367.284 218.665 367.748V367.88C218.665 368.36 218.769 368.784 218.977 369.152C219.193 369.512 219.489 369.796 219.865 370.004C220.249 370.204 220.685 370.304 221.173 370.304C221.557 370.304 221.913 370.236 222.241 370.1C222.577 369.964 222.865 369.756 223.105 369.476L223.585 370.028C223.521 370.108 223.449 370.18 223.369 370.244C223.297 370.308 223.217 370.38 223.129 370.46C222.753 370.78 222.465 371.056 222.265 371.288C222.073 371.528 221.937 371.736 221.857 371.912C221.785 372.088 221.749 372.256 221.749 372.416C221.749 372.656 221.821 372.832 221.965 372.944C222.117 373.056 222.309 373.112 222.541 373.112C222.669 373.112 222.797 373.092 222.925 373.052C223.061 373.012 223.177 372.956 223.273 372.884L223.465 373.352C223.321 373.44 223.161 373.508 222.985 373.556C222.817 373.612 222.637 373.64 222.445 373.64ZM227.407 371.06C226.887 371.06 226.395 370.988 225.931 370.844C225.467 370.692 225.103 370.504 224.839 370.28L225.223 369.608C225.479 369.8 225.807 369.968 226.207 370.112C226.607 370.248 227.027 370.316 227.467 370.316C228.067 370.316 228.499 370.224 228.763 370.04C229.027 369.848 229.159 369.596 229.159 369.284C229.159 369.052 229.083 368.872 228.931 368.744C228.787 368.608 228.595 368.508 228.355 368.444C228.115 368.372 227.847 368.312 227.551 368.264C227.255 368.216 226.959 368.16 226.663 368.096C226.375 368.032 226.111 367.94 225.871 367.82C225.631 367.692 225.435 367.52 225.283 367.304C225.139 367.088 225.067 366.8 225.067 366.44C225.067 366.096 225.163 365.788 225.355 365.516C225.547 365.244 225.827 365.032 226.195 364.88C226.571 364.72 227.027 364.64 227.563 364.64C227.971 364.64 228.379 364.696 228.787 364.808C229.195 364.912 229.531 365.052 229.795 365.228L229.423 365.912C229.143 365.72 228.843 365.584 228.523 365.504C228.203 365.416 227.883 365.372 227.563 365.372C226.995 365.372 226.575 365.472 226.303 365.672C226.039 365.864 225.907 366.112 225.907 366.416C225.907 366.656 225.979 366.844 226.123 366.98C226.275 367.116 226.471 367.224 226.711 367.304C226.959 367.376 227.227 367.436 227.515 367.484C227.811 367.532 228.103 367.592 228.391 367.664C228.687 367.728 228.955 367.82 229.195 367.94C229.443 368.052 229.639 368.216 229.783 368.432C229.935 368.64 230.011 368.916 230.011 369.26C230.011 369.628 229.907 369.948 229.699 370.22C229.499 370.484 229.203 370.692 228.811 370.844C228.427 370.988 227.959 371.06 227.407 371.06ZM226.663 363.716L228.307 362.228H229.447L227.503 363.716H226.663ZM231.575 371V362.096H232.427V371H231.575ZM234.797 371V364.7H235.649V371H234.797ZM235.229 363.308C235.053 363.308 234.905 363.248 234.785 363.128C234.665 363.008 234.605 362.864 234.605 362.696C234.605 362.528 234.665 362.388 234.785 362.276C234.905 362.156 235.053 362.096 235.229 362.096C235.405 362.096 235.553 362.152 235.673 362.264C235.793 362.376 235.853 362.516 235.853 362.684C235.853 362.86 235.793 363.008 235.673 363.128C235.561 363.248 235.413 363.308 235.229 363.308ZM239.304 371L236.928 364.7H237.744L239.904 370.544H239.532L241.752 364.7H242.484L244.68 370.544H244.308L246.504 364.7H247.284L244.896 371H244.092L241.98 365.504H242.232L240.108 371H239.304ZM248.545 373.388C248.249 373.388 247.965 373.34 247.693 373.244C247.429 373.148 247.201 373.004 247.009 372.812L247.405 372.176C247.565 372.328 247.737 372.444 247.921 372.524C248.113 372.612 248.325 372.656 248.557 372.656C248.837 372.656 249.077 372.576 249.277 372.416C249.485 372.264 249.681 371.992 249.865 371.6L250.273 370.676L250.369 370.544L252.961 364.7H253.801L250.645 371.756C250.469 372.164 250.273 372.488 250.057 372.728C249.849 372.968 249.621 373.136 249.373 373.232C249.125 373.336 248.849 373.388 248.545 373.388ZM250.225 371.18L247.321 364.7H248.209L250.777 370.484L250.225 371.18Z" fill="white" fill-opacity="0.7"/>
<path d="M314.658 371V362.6H317.802C318.514 362.6 319.126 362.716 319.638 362.948C320.15 363.172 320.542 363.5 320.814 363.932C321.094 364.356 321.234 364.872 321.234 365.48C321.234 366.072 321.094 366.584 320.814 367.016C320.542 367.44 320.15 367.768 319.638 368C319.126 368.232 318.514 368.348 317.802 368.348H315.15L315.546 367.928V371H314.658ZM315.546 368L315.15 367.568H317.778C318.618 367.568 319.254 367.388 319.686 367.028C320.126 366.66 320.346 366.144 320.346 365.48C320.346 364.808 320.126 364.288 319.686 363.92C319.254 363.552 318.618 363.368 317.778 363.368H315.15L315.546 362.948V368ZM322.81 371V364.7H323.626V366.416L323.542 366.116C323.718 365.636 324.014 365.272 324.43 365.024C324.846 364.768 325.362 364.64 325.978 364.64V365.468C325.946 365.468 325.914 365.468 325.882 365.468C325.85 365.46 325.818 365.456 325.786 365.456C325.122 365.456 324.602 365.66 324.226 366.068C323.85 366.468 323.662 367.04 323.662 367.784V371H322.81ZM326.942 371V370.436L331.142 365.12L331.322 365.408H327.014V364.7H331.994V365.252L327.806 370.58L327.59 370.292H332.078V371H326.942ZM336.326 371.06C335.67 371.06 335.094 370.924 334.598 370.652C334.102 370.372 333.714 369.992 333.434 369.512C333.154 369.024 333.014 368.468 333.014 367.844C333.014 367.22 333.146 366.668 333.41 366.188C333.682 365.708 334.05 365.332 334.514 365.06C334.986 364.78 335.514 364.64 336.098 364.64C336.69 364.64 337.214 364.776 337.67 365.048C338.134 365.312 338.498 365.688 338.762 366.176C339.026 366.656 339.158 367.212 339.158 367.844C339.158 367.884 339.154 367.928 339.146 367.976C339.146 368.016 339.146 368.06 339.146 368.108H333.662V367.472H338.69L338.354 367.724C338.354 367.268 338.254 366.864 338.054 366.512C337.862 366.152 337.598 365.872 337.262 365.672C336.926 365.472 336.538 365.372 336.098 365.372C335.666 365.372 335.278 365.472 334.934 365.672C334.59 365.872 334.322 366.152 334.13 366.512C333.938 366.872 333.842 367.284 333.842 367.748V367.88C333.842 368.36 333.946 368.784 334.154 369.152C334.37 369.512 334.666 369.796 335.042 370.004C335.426 370.204 335.862 370.304 336.35 370.304C336.734 370.304 337.09 370.236 337.418 370.1C337.754 369.964 338.042 369.756 338.282 369.476L338.762 370.028C338.482 370.364 338.13 370.62 337.706 370.796C337.29 370.972 336.83 371.06 336.326 371.06ZM340.892 371V364.7H341.708V366.416L341.624 366.116C341.8 365.636 342.096 365.272 342.512 365.024C342.928 364.768 343.444 364.64 344.06 364.64V365.468C344.028 365.468 343.996 365.468 343.964 365.468C343.932 365.46 343.9 365.456 343.868 365.456C343.204 365.456 342.684 365.66 342.308 366.068C341.932 366.468 341.744 367.04 341.744 367.784V371H340.892ZM349.164 371V369.608L349.128 369.38V367.052C349.128 366.516 348.976 366.104 348.672 365.816C348.376 365.528 347.932 365.384 347.34 365.384C346.932 365.384 346.544 365.452 346.176 365.588C345.808 365.724 345.496 365.904 345.24 366.128L344.856 365.492C345.176 365.22 345.56 365.012 346.008 364.868C346.456 364.716 346.928 364.64 347.424 364.64C348.24 364.64 348.868 364.844 349.308 365.252C349.756 365.652 349.98 366.264 349.98 367.088V371H349.164ZM346.992 371.06C346.52 371.06 346.108 370.984 345.756 370.832C345.412 370.672 345.148 370.456 344.964 370.184C344.78 369.904 344.688 369.584 344.688 369.224C344.688 368.896 344.764 368.6 344.916 368.336C345.076 368.064 345.332 367.848 345.684 367.688C346.044 367.52 346.524 367.436 347.124 367.436H349.296V368.072H347.148C346.54 368.072 346.116 368.18 345.876 368.396C345.644 368.612 345.528 368.88 345.528 369.2C345.528 369.56 345.668 369.848 345.948 370.064C346.228 370.28 346.62 370.388 347.124 370.388C347.604 370.388 348.016 370.28 348.36 370.064C348.712 369.84 348.968 369.52 349.128 369.104L349.32 369.692C349.16 370.108 348.88 370.44 348.48 370.688C348.088 370.936 347.592 371.06 346.992 371.06ZM351.61 371V370.436L355.81 365.12L355.99 365.408H351.682V364.7H356.662V365.252L352.474 370.58L352.258 370.292H356.746V371H351.61ZM354.178 363.44C354.018 363.44 353.882 363.384 353.77 363.272C353.658 363.16 353.602 363.024 353.602 362.864C353.602 362.696 353.658 362.56 353.77 362.456C353.882 362.344 354.018 362.288 354.178 362.288C354.338 362.288 354.474 362.344 354.586 362.456C354.698 362.56 354.754 362.696 354.754 362.864C354.754 363.024 354.698 363.16 354.586 363.272C354.474 363.384 354.338 363.44 354.178 363.44ZM360.885 371.06C360.277 371.06 359.729 370.924 359.241 370.652C358.761 370.372 358.381 369.992 358.101 369.512C357.821 369.024 357.681 368.468 357.681 367.844C357.681 367.212 357.821 366.656 358.101 366.176C358.381 365.696 358.761 365.32 359.241 365.048C359.721 364.776 360.269 364.64 360.885 364.64C361.509 364.64 362.061 364.776 362.541 365.048C363.029 365.32 363.409 365.696 363.681 366.176C363.961 366.656 364.101 367.212 364.101 367.844C364.101 368.468 363.961 369.024 363.681 369.512C363.409 369.992 363.029 370.372 362.541 370.652C362.053 370.924 361.501 371.06 360.885 371.06ZM360.885 370.304C361.341 370.304 361.745 370.204 362.097 370.004C362.449 369.796 362.725 369.508 362.925 369.14C363.133 368.764 363.237 368.332 363.237 367.844C363.237 367.348 363.133 366.916 362.925 366.548C362.725 366.18 362.449 365.896 362.097 365.696C361.745 365.488 361.345 365.384 360.897 365.384C360.449 365.384 360.049 365.488 359.697 365.696C359.345 365.896 359.065 366.18 358.857 366.548C358.649 366.916 358.545 367.348 358.545 367.844C358.545 368.332 358.649 368.764 358.857 369.14C359.065 369.508 359.345 369.796 359.697 370.004C360.049 370.204 360.445 370.304 360.885 370.304ZM365.841 371V364.7H366.657V366.428L366.525 366.104C366.725 365.648 367.045 365.292 367.485 365.036C367.925 364.772 368.449 364.64 369.057 364.64C369.569 364.64 370.017 364.74 370.401 364.94C370.793 365.132 371.097 365.428 371.313 365.828C371.537 366.228 371.649 366.732 371.649 367.34V371H370.797V367.424C370.797 366.76 370.629 366.26 370.293 365.924C369.965 365.58 369.501 365.408 368.901 365.408C368.453 365.408 368.061 365.5 367.725 365.684C367.397 365.86 367.141 366.12 366.957 366.464C366.781 366.8 366.693 367.208 366.693 367.688V371H365.841ZM373.776 373.388C373.48 373.388 373.196 373.34 372.924 373.244C372.66 373.148 372.432 373.004 372.24 372.812L372.636 372.176C372.796 372.328 372.968 372.444 373.152 372.524C373.344 372.612 373.556 372.656 373.788 372.656C374.068 372.656 374.308 372.576 374.508 372.416C374.716 372.264 374.912 371.992 375.096 371.6L375.504 370.676L375.6 370.544L378.192 364.7H379.032L375.876 371.756C375.7 372.164 375.504 372.488 375.288 372.728C375.08 372.968 374.852 373.136 374.604 373.232C374.356 373.336 374.08 373.388 373.776 373.388ZM375.456 371.18L372.552 364.7H373.44L376.008 370.484L375.456 371.18Z" fill="white" fill-opacity="0.7"/>
<path d="M461.549 371V370.388L467.381 363.032L467.477 363.368H461.633V362.6H468.293V363.212L462.473 370.568L462.365 370.232H468.437V371H461.549ZM470.074 371V362.096H470.926V371H470.074ZM469.246 368.204L468.85 367.688L471.754 365.504L472.138 366.032L469.246 368.204ZM473.39 373.388C473.094 373.388 472.81 373.34 472.538 373.244C472.274 373.148 472.046 373.004 471.854 372.812L472.25 372.176C472.41 372.328 472.582 372.444 472.766 372.524C472.958 372.612 473.17 372.656 473.402 372.656C473.682 372.656 473.922 372.576 474.122 372.416C474.33 372.264 474.526 371.992 474.71 371.6L475.118 370.676L475.214 370.544L477.806 364.7H478.646L475.49 371.756C475.314 372.164 475.118 372.488 474.902 372.728C474.694 372.968 474.466 373.136 474.218 373.232C473.97 373.336 473.694 373.388 473.39 373.388ZM475.07 371.18L472.166 364.7H473.054L475.622 370.484L475.07 371.18Z" fill="white" fill-opacity="0.7"/>
<path d="M559.142 371V370.388L564.974 363.032L565.07 363.368H559.226V362.6H565.886V363.212L560.066 370.568L559.958 370.232H566.03V371H559.142ZM571.554 371V369.608L571.518 369.38V367.052C571.518 366.516 571.366 366.104 571.062 365.816C570.766 365.528 570.322 365.384 569.73 365.384C569.322 365.384 568.934 365.452 568.566 365.588C568.198 365.724 567.886 365.904 567.63 366.128L567.246 365.492C567.566 365.22 567.95 365.012 568.398 364.868C568.846 364.716 569.318 364.64 569.814 364.64C570.63 364.64 571.258 364.844 571.698 365.252C572.146 365.652 572.37 366.264 572.37 367.088V371H571.554ZM569.382 371.06C568.91 371.06 568.498 370.984 568.146 370.832C567.802 370.672 567.538 370.456 567.354 370.184C567.17 369.904 567.078 369.584 567.078 369.224C567.078 368.896 567.154 368.6 567.306 368.336C567.466 368.064 567.722 367.848 568.074 367.688C568.434 367.52 568.914 367.436 569.514 367.436H571.686V368.072H569.538C568.93 368.072 568.506 368.18 568.266 368.396C568.034 368.612 567.918 368.88 567.918 369.2C567.918 369.56 568.058 369.848 568.338 370.064C568.618 370.28 569.01 370.388 569.514 370.388C569.994 370.388 570.406 370.28 570.75 370.064C571.102 369.84 571.358 369.52 571.518 369.104L571.71 369.692C571.55 370.108 571.27 370.44 570.87 370.688C570.478 370.936 569.982 371.06 569.382 371.06ZM576.376 371.06C575.856 371.06 575.364 370.988 574.9 370.844C574.436 370.692 574.072 370.504 573.808 370.28L574.192 369.608C574.448 369.8 574.776 369.968 575.176 370.112C575.576 370.248 575.996 370.316 576.436 370.316C577.036 370.316 577.468 370.224 577.732 370.04C577.996 369.848 578.128 369.596 578.128 369.284C578.128 369.052 578.052 368.872 577.9 368.744C577.756 368.608 577.564 368.508 577.324 368.444C577.084 368.372 576.816 368.312 576.52 368.264C576.224 368.216 575.928 368.16 575.632 368.096C575.344 368.032 575.08 367.94 574.84 367.82C574.6 367.692 574.404 367.52 574.252 367.304C574.108 367.088 574.036 366.8 574.036 366.44C574.036 366.096 574.132 365.788 574.324 365.516C574.516 365.244 574.796 365.032 575.164 364.88C575.54 364.72 575.996 364.64 576.532 364.64C576.94 364.64 577.348 364.696 577.756 364.808C578.164 364.912 578.5 365.052 578.764 365.228L578.392 365.912C578.112 365.72 577.812 365.584 577.492 365.504C577.172 365.416 576.852 365.372 576.532 365.372C575.964 365.372 575.544 365.472 575.272 365.672C575.008 365.864 574.876 366.112 574.876 366.416C574.876 366.656 574.948 366.844 575.092 366.98C575.244 367.116 575.44 367.224 575.68 367.304C575.928 367.376 576.196 367.436 576.484 367.484C576.78 367.532 577.072 367.592 577.36 367.664C577.656 367.728 577.924 367.82 578.164 367.94C578.412 368.052 578.608 368.216 578.752 368.432C578.904 368.64 578.98 368.916 578.98 369.26C578.98 369.628 578.876 369.948 578.668 370.22C578.468 370.484 578.172 370.692 577.78 370.844C577.396 370.988 576.928 371.06 576.376 371.06ZM581.215 369.368L581.239 368.276L585.163 364.7H586.207L583.435 367.352L582.955 367.76L581.215 369.368ZM580.543 371V362.096H581.395V371H580.543ZM585.427 371L582.799 367.724L583.351 367.064L586.471 371H585.427ZM590.025 371.06C589.417 371.06 588.869 370.924 588.381 370.652C587.901 370.372 587.521 369.992 587.241 369.512C586.961 369.024 586.821 368.468 586.821 367.844C586.821 367.212 586.961 366.656 587.241 366.176C587.521 365.696 587.901 365.32 588.381 365.048C588.861 364.776 589.409 364.64 590.025 364.64C590.649 364.64 591.201 364.776 591.681 365.048C592.169 365.32 592.549 365.696 592.821 366.176C593.101 366.656 593.241 367.212 593.241 367.844C593.241 368.468 593.101 369.024 592.821 369.512C592.549 369.992 592.169 370.372 591.681 370.652C591.193 370.924 590.641 371.06 590.025 371.06ZM590.025 370.304C590.481 370.304 590.885 370.204 591.237 370.004C591.589 369.796 591.865 369.508 592.065 369.14C592.273 368.764 592.377 368.332 592.377 367.844C592.377 367.348 592.273 366.916 592.065 366.548C591.865 366.18 591.589 365.896 591.237 365.696C590.885 365.488 590.485 365.384 590.037 365.384C589.589 365.384 589.189 365.488 588.837 365.696C588.485 365.896 588.205 366.18 587.997 366.548C587.789 366.916 587.685 367.348 587.685 367.844C587.685 368.332 587.789 368.764 587.997 369.14C588.205 369.508 588.485 369.796 588.837 370.004C589.189 370.204 589.585 370.304 590.025 370.304ZM597.597 371.06C596.973 371.06 596.413 370.924 595.917 370.652C595.429 370.372 595.045 369.992 594.765 369.512C594.485 369.024 594.345 368.468 594.345 367.844C594.345 367.212 594.485 366.656 594.765 366.176C595.045 365.696 595.429 365.32 595.917 365.048C596.413 364.776 596.973 364.64 597.597 364.64C598.133 364.64 598.617 364.744 599.049 364.952C599.481 365.16 599.821 365.472 600.069 365.888L599.433 366.32C599.217 366 598.949 365.764 598.629 365.612C598.309 365.46 597.961 365.384 597.585 365.384C597.137 365.384 596.733 365.488 596.373 365.696C596.013 365.896 595.729 366.18 595.521 366.548C595.313 366.916 595.209 367.348 595.209 367.844C595.209 368.34 595.313 368.772 595.521 369.14C595.729 369.508 596.013 369.796 596.373 370.004C596.733 370.204 597.137 370.304 597.585 370.304C597.961 370.304 598.309 370.228 598.629 370.076C598.949 369.924 599.217 369.692 599.433 369.38L600.069 369.812C599.821 370.22 599.481 370.532 599.049 370.748C598.617 370.956 598.133 371.06 597.597 371.06ZM600.965 371V370.436L605.165 365.12L605.345 365.408H601.037V364.7H606.017V365.252L601.829 370.58L601.613 370.292H606.101V371H600.965ZM610.24 371.06C609.632 371.06 609.084 370.924 608.596 370.652C608.116 370.372 607.736 369.992 607.456 369.512C607.176 369.024 607.036 368.468 607.036 367.844C607.036 367.212 607.176 366.656 607.456 366.176C607.736 365.696 608.116 365.32 608.596 365.048C609.076 364.776 609.624 364.64 610.24 364.64C610.864 364.64 611.416 364.776 611.896 365.048C612.384 365.32 612.764 365.696 613.036 366.176C613.316 366.656 613.456 367.212 613.456 367.844C613.456 368.468 613.316 369.024 613.036 369.512C612.764 369.992 612.384 370.372 611.896 370.652C611.408 370.924 610.856 371.06 610.24 371.06ZM610.24 370.304C610.696 370.304 611.1 370.204 611.452 370.004C611.804 369.796 612.08 369.508 612.28 369.14C612.488 368.764 612.592 368.332 612.592 367.844C612.592 367.348 612.488 366.916 612.28 366.548C612.08 366.18 611.804 365.896 611.452 365.696C611.1 365.488 610.7 365.384 610.252 365.384C609.804 365.384 609.404 365.488 609.052 365.696C608.7 365.896 608.42 366.18 608.212 366.548C608.004 366.916 607.9 367.348 607.9 367.844C607.9 368.332 608.004 368.764 608.212 369.14C608.42 369.508 608.7 369.796 609.052 370.004C609.404 370.204 609.8 370.304 610.24 370.304ZM615.196 371V364.7H616.012V366.428L615.88 366.104C616.08 365.648 616.4 365.292 616.84 365.036C617.28 364.772 617.804 364.64 618.412 364.64C618.924 364.64 619.372 364.74 619.756 364.94C620.148 365.132 620.452 365.428 620.668 365.828C620.892 366.228 621.004 366.732 621.004 367.34V371H620.152V367.424C620.152 366.76 619.984 366.26 619.648 365.924C619.32 365.58 618.856 365.408 618.256 365.408C617.808 365.408 617.416 365.5 617.08 365.684C616.752 365.86 616.496 366.12 616.312 366.464C616.136 366.8 616.048 367.208 616.048 367.688V371H615.196ZM623.13 373.388C622.834 373.388 622.55 373.34 622.278 373.244C622.014 373.148 621.786 373.004 621.594 372.812L621.99 372.176C622.15 372.328 622.322 372.444 622.506 372.524C622.698 372.612 622.91 372.656 623.142 372.656C623.422 372.656 623.662 372.576 623.862 372.416C624.07 372.264 624.266 371.992 624.45 371.6L624.858 370.676L624.954 370.544L627.546 364.7H628.386L625.23 371.756C625.054 372.164 624.858 372.488 624.642 372.728C624.434 372.968 624.206 373.136 623.958 373.232C623.71 373.336 623.434 373.388 623.13 373.388ZM624.81 371.18L621.906 364.7H622.794L625.362 370.484L624.81 371.18Z" fill="white" fill-opacity="0.7"/>
<path d="M697.132 371.072C696.508 371.072 695.908 370.972 695.332 370.772C694.764 370.564 694.324 370.3 694.012 369.98L694.36 369.296C694.656 369.584 695.052 369.828 695.548 370.028C696.052 370.22 696.58 370.316 697.132 370.316C697.66 370.316 698.088 370.252 698.416 370.124C698.752 369.988 698.996 369.808 699.148 369.584C699.308 369.36 699.388 369.112 699.388 368.84C699.388 368.512 699.292 368.248 699.1 368.048C698.916 367.848 698.672 367.692 698.368 367.58C698.064 367.46 697.728 367.356 697.36 367.268C696.992 367.18 696.624 367.088 696.256 366.992C695.888 366.888 695.548 366.752 695.236 366.584C694.932 366.416 694.684 366.196 694.492 365.924C694.308 365.644 694.216 365.28 694.216 364.832C694.216 364.416 694.324 364.036 694.54 363.692C694.764 363.34 695.104 363.06 695.56 362.852C696.016 362.636 696.6 362.528 697.312 362.528C697.784 362.528 698.252 362.596 698.716 362.732C699.18 362.86 699.58 363.04 699.916 363.272L699.616 363.98C699.256 363.74 698.872 363.564 698.464 363.452C698.064 363.34 697.676 363.284 697.3 363.284C696.796 363.284 696.38 363.352 696.052 363.488C695.724 363.624 695.48 363.808 695.32 364.04C695.168 364.264 695.092 364.52 695.092 364.808C695.092 365.136 695.184 365.4 695.368 365.6C695.56 365.8 695.808 365.956 696.112 366.068C696.424 366.18 696.764 366.28 697.132 366.368C697.5 366.456 697.864 366.552 698.224 366.656C698.592 366.76 698.928 366.896 699.232 367.064C699.544 367.224 699.792 367.44 699.976 367.712C700.168 367.984 700.264 368.34 700.264 368.78C700.264 369.188 700.152 369.568 699.928 369.92C699.704 370.264 699.36 370.544 698.896 370.76C698.44 370.968 697.852 371.072 697.132 371.072ZM702.019 371V364.7H702.835V366.404L702.703 366.104C702.895 365.648 703.203 365.292 703.627 365.036C704.059 364.772 704.567 364.64 705.151 364.64C705.767 364.64 706.291 364.796 706.723 365.108C707.155 365.412 707.435 365.872 707.563 366.488L707.227 366.356C707.411 365.844 707.735 365.432 708.199 365.12C708.671 364.8 709.235 364.64 709.891 364.64C710.403 364.64 710.847 364.74 711.223 364.94C711.607 365.132 711.903 365.428 712.111 365.828C712.327 366.228 712.435 366.732 712.435 367.34V371H711.583V367.424C711.583 366.76 711.423 366.26 711.103 365.924C710.791 365.58 710.347 365.408 709.771 365.408C709.339 365.408 708.963 365.5 708.643 365.684C708.331 365.86 708.087 366.12 707.911 366.464C707.743 366.8 707.659 367.208 707.659 367.688V371H706.807V367.424C706.807 366.76 706.647 366.26 706.327 365.924C706.007 365.58 705.559 365.408 704.983 365.408C704.559 365.408 704.187 365.5 703.867 365.684C703.547 365.86 703.299 366.12 703.123 366.464C702.955 366.8 702.871 367.208 702.871 367.688V371H702.019ZM717.349 371.06C716.813 371.06 716.345 370.96 715.945 370.76C715.545 370.56 715.233 370.26 715.009 369.86C714.793 369.46 714.685 368.96 714.685 368.36V364.7H715.537V368.264C715.537 368.936 715.701 369.444 716.029 369.788C716.365 370.124 716.833 370.292 717.433 370.292C717.873 370.292 718.253 370.204 718.573 370.028C718.901 369.844 719.149 369.58 719.317 369.236C719.493 368.892 719.581 368.48 719.581 368V364.7H720.433V371H719.617V369.272L719.749 369.584C719.549 370.048 719.237 370.412 718.813 370.676C718.397 370.932 717.909 371.06 717.349 371.06ZM724.8 371.06C724.208 371.06 723.752 370.9 723.432 370.58C723.112 370.26 722.952 369.808 722.952 369.224V363.308H723.804V369.176C723.804 369.544 723.896 369.828 724.08 370.028C724.272 370.228 724.544 370.328 724.896 370.328C725.272 370.328 725.584 370.22 725.832 370.004L726.132 370.616C725.964 370.768 725.76 370.88 725.52 370.952C725.288 371.024 725.048 371.06 724.8 371.06ZM721.824 365.408V364.7H725.724V365.408H721.824ZM727.683 371V364.7H728.499V366.428L728.367 366.104C728.567 365.648 728.887 365.292 729.327 365.036C729.767 364.772 730.291 364.64 730.899 364.64C731.411 364.64 731.859 364.74 732.243 364.94C732.635 365.132 732.939 365.428 733.155 365.828C733.379 366.228 733.491 366.732 733.491 367.34V371H732.639V367.424C732.639 366.76 732.471 366.26 732.135 365.924C731.807 365.58 731.343 365.408 730.743 365.408C730.295 365.408 729.903 365.5 729.567 365.684C729.239 365.86 728.983 366.12 728.799 366.464C728.623 366.8 728.535 367.208 728.535 367.688V371H727.683ZM735.617 373.388C735.321 373.388 735.037 373.34 734.765 373.244C734.501 373.148 734.273 373.004 734.081 372.812L734.477 372.176C734.637 372.328 734.809 372.444 734.993 372.524C735.185 372.612 735.397 372.656 735.629 372.656C735.909 372.656 736.149 372.576 736.349 372.416C736.557 372.264 736.753 371.992 736.937 371.6L737.345 370.676L737.441 370.544L740.033 364.7H740.873L737.717 371.756C737.541 372.164 737.345 372.488 737.129 372.728C736.921 372.968 736.693 373.136 736.445 373.232C736.197 373.336 735.921 373.388 735.617 373.388ZM737.297 371.18L734.393 364.7H735.281L737.849 370.484L737.297 371.18Z" fill="white" fill-opacity="0.7"/>
</svg>
